<svg width="45" height="45" viewBox="0 0 45 45" fill="none" xmlns="http://www.w3.org/2000/svg">
<path d="M21.913 39.4874H9.45549C8.48302 39.4874 7.55039 39.1011 6.86276 38.4134C6.17513 37.7258 5.78882 36.7932 5.78882 35.8207V13.8207C5.78882 12.8483 6.17513 11.9156 6.86276 11.228C7.55039 10.5404 8.48302 10.1541 9.45549 10.1541H31.4555C32.4279 10.1541 33.3606 10.5404 34.0482 11.228C34.7358 11.9156 35.1222 12.8483 35.1222 13.8207V21.1541" stroke="white" stroke-width="2.75" stroke-linecap="round" stroke-linejoin="round"/>
<path d="M33.2888 41.3207C37.3389 41.3207 40.6221 38.0375 40.6221 33.9874C40.6221 29.9373 37.3389 26.6541 33.2888 26.6541C29.2387 26.6541 25.9554 29.9373 25.9554 33.9874C25.9554 38.0375 29.2387 41.3207 33.2888 41.3207Z" stroke="white" stroke-width="2.75" stroke-linecap="round" stroke-linejoin="round"/>
<path d="M27.7888 6.48743V13.8208" stroke="white" stroke-width="2.75" stroke-linecap="round" stroke-linejoin="round"/>
<path d="M13.1222 6.48743V13.8208" stroke="white" stroke-width="2.75" stroke-linecap="round" stroke-linejoin="round"/>
<path d="M5.78882 21.1541H35.1222" stroke="white" stroke-width="2.75" stroke-linecap="round" stroke-linejoin="round"/>
<path d="M33.2888 31.2301V33.9874L35.1222 35.8208" stroke="white" stroke-width="2.75" stroke-linecap="round" stroke-linejoin="round"/>
</svg>
