<svg width="33" height="33" viewBox="0 0 33 33" fill="none" xmlns="http://www.w3.org/2000/svg">
<path d="M23.2946 2.79364H9.96122C6.27932 2.79364 3.29456 5.77841 3.29456 9.46031V22.7936C3.29456 26.4755 6.27932 29.4603 9.96122 29.4603H23.2946C26.9765 29.4603 29.9612 26.4755 29.9612 22.7936V9.46031C29.9612 5.77841 26.9765 2.79364 23.2946 2.79364Z" stroke="#2C3E50" stroke-width="2.75" stroke-linecap="round" stroke-linejoin="round"/>
<path d="M21.9613 15.2869C22.1258 16.3966 21.9363 17.5299 21.4196 18.5256C20.903 19.5213 20.0855 20.3288 19.0834 20.8332C18.0814 21.3375 16.9459 21.5131 15.8383 21.3348C14.7308 21.1566 13.7076 20.6337 12.9144 19.8405C12.1212 19.0472 11.5983 18.0241 11.42 16.9165C11.2418 15.809 11.4174 14.6735 11.9217 13.6714C12.4261 12.6694 13.2335 11.8519 14.2293 11.3352C15.225 10.8186 16.3583 10.629 17.4679 10.7936C18.5998 10.9614 19.6477 11.4889 20.4569 12.298C21.266 13.1071 21.7934 14.155 21.9613 15.2869Z" stroke="#2C3E50" stroke-width="2.75" stroke-linecap="round" stroke-linejoin="round"/>
<path d="M23.9613 8.79364H23.9751" stroke="#2C3E50" stroke-width="2.75" stroke-linecap="round" stroke-linejoin="round"/>
</svg>
