<svg width="43" height="42" viewBox="0 0 43 42" fill="none" xmlns="http://www.w3.org/2000/svg">
<path d="M30.0391 4.37561H12.5391C7.70657 4.37561 3.78906 8.19984 3.78906 12.9173V30.0006C3.78906 34.718 7.70657 38.5423 12.5391 38.5423H30.0391C34.8716 38.5423 38.7891 34.718 38.7891 30.0006V12.9173C38.7891 8.19984 34.8716 4.37561 30.0391 4.37561Z" stroke="black" stroke-width="2" stroke-linecap="round" stroke-linejoin="round"/>
<path d="M28.289 20.3828C28.505 21.8045 28.2562 23.2565 27.5781 24.5323C26.9 25.8081 25.827 26.8427 24.5119 27.4889C23.1967 28.1351 21.7063 28.36 20.2527 28.1316C18.799 27.9033 17.4561 27.2333 16.415 26.217C15.3739 25.2007 14.6876 23.8898 14.4537 22.4707C14.2197 21.0517 14.4502 19.5967 15.1121 18.3129C15.7741 17.0291 16.8339 15.9817 18.1408 15.3197C19.4477 14.6577 20.9351 14.4148 22.3915 14.6257C23.8772 14.8407 25.2525 15.5165 26.3145 16.5532C27.3765 17.5899 28.0687 18.9325 28.289 20.3828Z" stroke="black" stroke-width="2" stroke-linecap="round" stroke-linejoin="round"/>
<path d="M30.9141 12.0631H30.9316" stroke="black" stroke-width="2" stroke-linecap="round" stroke-linejoin="round"/>
</svg>
