<svg width="25" height="24" viewBox="0 0 25 24" fill="none" xmlns="http://www.w3.org/2000/svg">
<path d="M17.3989 2H7.39893C4.6375 2 2.39893 4.23858 2.39893 7V17C2.39893 19.7614 4.6375 22 7.39893 22H17.3989C20.1603 22 22.3989 19.7614 22.3989 17V7C22.3989 4.23858 20.1603 2 17.3989 2Z" stroke="black" stroke-width="2" stroke-linecap="round" stroke-linejoin="round"/>
<path d="M16.3991 11.3701C16.5225 12.2023 16.3804 13.0523 15.9929 13.7991C15.6054 14.5459 14.9923 15.1515 14.2407 15.5297C13.4892 15.908 12.6376 16.0397 11.8069 15.906C10.9762 15.7723 10.2089 15.3801 9.61396 14.7852C9.01904 14.1903 8.62685 13.4229 8.49319 12.5923C8.35952 11.7616 8.49119 10.91 8.86945 10.1584C9.24771 9.40691 9.85331 8.7938 10.6001 8.4063C11.3469 8.0188 12.1969 7.87665 13.0291 8.00006C13.878 8.12594 14.664 8.52152 15.2708 9.12836C15.8777 9.73521 16.2732 10.5211 16.3991 11.3701Z" stroke="black" stroke-width="2" stroke-linecap="round" stroke-linejoin="round"/>
<path d="M17.8989 6.5H17.9092" stroke="black" stroke-width="2" stroke-linecap="round" stroke-linejoin="round"/>
</svg>
