<svg width="25" height="25" viewBox="0 0 25 25" fill="none" xmlns="http://www.w3.org/2000/svg">
<g clip-path="url(#clip0_84_1391)">
<path d="M21.8418 10.3809C21.8418 17.3809 12.8418 23.3809 12.8418 23.3809C12.8418 23.3809 3.8418 17.3809 3.8418 10.3809C3.8418 7.99391 4.79001 5.70473 6.47784 4.0169C8.16566 2.32907 10.4548 1.38086 12.8418 1.38086C15.2287 1.38086 17.5179 2.32907 19.2058 4.0169C20.8936 5.70473 21.8418 7.99391 21.8418 10.3809Z" stroke="black" stroke-width="2" stroke-linecap="round" stroke-linejoin="round"/>
<path d="M12.8418 13.3809C14.4987 13.3809 15.8418 12.0377 15.8418 10.3809C15.8418 8.72401 14.4987 7.38086 12.8418 7.38086C11.1849 7.38086 9.8418 8.72401 9.8418 10.3809C9.8418 12.0377 11.1849 13.3809 12.8418 13.3809Z" stroke="black" stroke-width="2" stroke-linecap="round" stroke-linejoin="round"/>
</g>
<defs>
<clipPath id="clip0_84_1391">
<rect width="24" height="24" fill="white" transform="translate(0.841797 0.380859)"/>
</clipPath>
</defs>
</svg>
