<svg width="25" height="25" viewBox="0 0 25 25" fill="none" xmlns="http://www.w3.org/2000/svg">
<g clip-path="url(#clip0_84_2104)">
<path d="M21.8418 10.9417C21.8418 17.9417 12.8418 23.9417 12.8418 23.9417C12.8418 23.9417 3.8418 17.9417 3.8418 10.9417C3.8418 8.5547 4.79001 6.26552 6.47784 4.57769C8.16566 2.88986 10.4548 1.94165 12.8418 1.94165C15.2287 1.94165 17.5179 2.88986 19.2058 4.57769C20.8936 6.26552 21.8418 8.5547 21.8418 10.9417Z" stroke="black" stroke-width="2" stroke-linecap="round" stroke-linejoin="round"/>
<path d="M12.8418 13.9417C14.4987 13.9417 15.8418 12.5985 15.8418 10.9417C15.8418 9.2848 14.4987 7.94165 12.8418 7.94165C11.1849 7.94165 9.8418 9.2848 9.8418 10.9417C9.8418 12.5985 11.1849 13.9417 12.8418 13.9417Z" stroke="black" stroke-width="2" stroke-linecap="round" stroke-linejoin="round"/>
</g>
<defs>
<clipPath id="clip0_84_2104">
<rect width="24" height="24" fill="white" transform="translate(0.841797 0.94165)"/>
</clipPath>
</defs>
</svg>
