<svg width="25" height="25" viewBox="0 0 25 25" fill="none" xmlns="http://www.w3.org/2000/svg">
<path d="M22.8417 17.8638V20.8638C22.8429 21.1423 22.7858 21.418 22.6742 21.6732C22.5627 21.9283 22.399 22.1574 22.1938 22.3457C21.9886 22.534 21.7463 22.6773 21.4825 22.7665C21.2187 22.8558 20.9391 22.8889 20.6617 22.8638C17.5846 22.5295 14.6287 21.478 12.0317 19.7938C9.61556 18.2585 7.56707 16.21 6.03173 13.7938C4.34171 11.185 3.28997 8.21482 2.96173 5.12382C2.93674 4.84729 2.9696 4.56858 3.05823 4.30545C3.14686 4.04231 3.2893 3.80051 3.4765 3.59544C3.66369 3.39038 3.89153 3.22653 4.14552 3.11434C4.39951 3.00216 4.67407 2.94408 4.95173 2.94382H7.95173C8.43704 2.93905 8.90752 3.1109 9.27549 3.42736C9.64346 3.74381 9.88381 4.18327 9.95173 4.66382C10.0784 5.62389 10.3132 6.56655 10.6517 7.47382C10.7863 7.83175 10.8154 8.22074 10.7356 8.5947C10.6559 8.96867 10.4706 9.31193 10.2017 9.58382L8.93173 10.8538C10.3553 13.3574 12.4282 15.4303 14.9317 16.8538L16.2017 15.5838C16.4736 15.315 16.8169 15.1297 17.1908 15.0499C17.5648 14.9702 17.9538 14.9993 18.3117 15.1338C19.219 15.4724 20.1617 15.7072 21.1217 15.8338C21.6075 15.9024 22.0511 16.147 22.3683 16.5213C22.6854 16.8956 22.8539 17.3734 22.8417 17.8638Z" stroke="black" stroke-width="2" stroke-linecap="round" stroke-linejoin="round"/>
</svg>
