<svg width="25" height="25" viewBox="0 0 25 25" fill="none" xmlns="http://www.w3.org/2000/svg">
<path d="M22.8422 17.4175V20.4175C22.8433 20.696 22.7863 20.9717 22.6747 21.2269C22.5632 21.4821 22.3995 21.7111 22.1943 21.8994C21.9891 22.0877 21.7468 22.231 21.483 22.3202C21.2191 22.4095 20.9396 22.4426 20.6622 22.4175C17.5851 22.0832 14.6292 21.0317 12.0322 19.3475C9.61605 17.8122 7.56755 15.7637 6.03222 13.3475C4.3422 10.7387 3.29046 7.76853 2.96222 4.67753C2.93723 4.401 2.97009 4.12229 3.05872 3.85916C3.14734 3.59602 3.28979 3.35422 3.47698 3.14915C3.66418 2.94409 3.89202 2.78024 4.14601 2.66806C4.4 2.55587 4.67456 2.49779 4.95222 2.49753H7.95222C8.43752 2.49276 8.90801 2.66461 9.27598 2.98107C9.64395 3.29752 9.8843 3.73698 9.95222 4.21753C10.0788 5.1776 10.3137 6.12026 10.6522 7.02753C10.7868 7.38546 10.8159 7.77445 10.7361 8.14841C10.6564 8.52238 10.4711 8.86564 10.2022 9.13753L8.93222 10.4075C10.3558 12.9111 12.4287 14.984 14.9322 16.4075L16.2022 15.1375C16.4741 14.8687 16.8174 14.6834 17.1913 14.6036C17.5653 14.5239 17.9543 14.553 18.3122 14.6875C19.2195 15.0261 20.1622 15.2609 21.1222 15.3875C21.608 15.4561 22.0516 15.7007 22.3688 16.075C22.6859 16.4493 22.8544 16.9271 22.8422 17.4175Z" stroke="black" stroke-width="2" stroke-linecap="round" stroke-linejoin="round"/>
</svg>
