<svg width="25" height="24" viewBox="0 0 25 24" fill="none" xmlns="http://www.w3.org/2000/svg">
<path d="M22.3989 4.01026C21.3989 4.50026 20.4189 4.69926 19.3989 5.00026C18.2779 3.73526 16.6159 3.66526 15.0189 4.26326C13.4219 4.86126 12.3759 6.32326 12.3989 8.00026V9.00026C9.15393 9.08326 6.26393 7.60526 4.39893 5.00026C4.39893 5.00026 0.216926 12.4333 8.39893 16.0003C6.52693 17.2473 4.65993 18.0883 2.39893 18.0003C5.70693 19.8033 9.31193 20.4233 12.4329 19.5173C16.0129 18.4773 18.9549 15.7943 20.0839 11.7753C20.4207 10.5529 20.5879 9.29012 20.5809 8.02226C20.5789 7.77326 22.0909 5.25026 22.3989 4.00926V4.01026Z" stroke="black" stroke-width="2" stroke-linecap="round" stroke-linejoin="round"/>
</svg>
