<svg width="32" height="26" viewBox="0 0 32 26" fill="none" xmlns="http://www.w3.org/2000/svg">
<path d="M30.1781 1.99775C28.7614 2.69191 27.3731 2.97383 25.9281 3.40025C24.34 1.60816 21.9855 1.509 19.7231 2.35616C17.4606 3.20333 15.9788 5.2745 16.0114 7.65025V9.06691C11.4143 9.1845 7.32014 7.09066 4.67806 3.40025C4.67806 3.40025 -1.24644 13.9303 10.3447 18.9836C7.69273 20.7502 5.04781 21.9416 1.84473 21.8169C6.53106 24.3712 11.6381 25.2495 16.0596 23.966C21.1312 22.4927 25.2991 18.6917 26.8985 12.9982C27.3756 11.2665 27.6125 9.47755 27.6026 7.68141C27.5997 7.32866 29.7417 3.75441 30.1781 1.99633V1.99775Z" stroke="#2C3E50" stroke-width="2.75" stroke-linecap="round" stroke-linejoin="round"/>
</svg>
