<svg width="35" height="35" viewBox="0 0 35 35" fill="none" xmlns="http://www.w3.org/2000/svg">
<path d="M4.26172 30.0669L6.59922 24.6836C4.81091 22.145 4.0105 19.041 4.3482 15.9542C4.6859 12.8674 6.1385 10.0099 8.43339 7.91807C10.7283 5.82619 13.7077 4.64371 16.8125 4.59255C19.9173 4.54139 22.9341 5.62506 25.2966 7.64019C27.6592 9.65532 29.2052 12.4634 29.6444 15.5374C30.0836 18.6114 29.3859 21.74 27.6822 24.3362C25.9785 26.9323 23.3859 28.8174 20.391 29.6378C17.3961 30.4582 14.2048 30.1574 11.4159 28.7919L4.26172 30.0669" stroke="#2C3E50" stroke-width="2.75" stroke-linecap="round" stroke-linejoin="round"/>
<path d="M12.7617 14.4835C12.7617 14.6714 12.8363 14.8516 12.9692 14.9844C13.102 15.1172 13.2822 15.1919 13.4701 15.1919C13.6579 15.1919 13.8381 15.1172 13.9709 14.9844C14.1038 14.8516 14.1784 14.6714 14.1784 14.4835V13.0669C14.1784 12.879 14.1038 12.6988 13.9709 12.566C13.8381 12.4331 13.6579 12.3585 13.4701 12.3585C13.2822 12.3585 13.102 12.4331 12.9692 12.566C12.8363 12.6988 12.7617 12.879 12.7617 13.0669V14.4835ZM12.7617 14.4835C12.7617 16.3621 13.508 18.1638 14.8364 19.4922C16.1648 20.8206 17.9664 21.5669 19.8451 21.5669H21.2617C21.4496 21.5669 21.6297 21.4922 21.7626 21.3594C21.8954 21.2266 21.9701 21.0464 21.9701 20.8585C21.9701 20.6707 21.8954 20.4905 21.7626 20.3577C21.6297 20.2248 21.4496 20.1502 21.2617 20.1502H19.8451C19.6572 20.1502 19.477 20.2248 19.3442 20.3577C19.2113 20.4905 19.1367 20.6707 19.1367 20.8585C19.1367 21.0464 19.2113 21.2266 19.3442 21.3594C19.477 21.4922 19.6572 21.5669 19.8451 21.5669" stroke="#2C3E50" stroke-width="2.75" stroke-linecap="round" stroke-linejoin="round"/>
</svg>
