<svg width="25" height="24" viewBox="0 0 25 24" fill="none" xmlns="http://www.w3.org/2000/svg">
<path d="M3.39893 21.0002L5.04893 17.2002C3.78659 15.4083 3.22159 13.2172 3.45997 11.0383C3.69835 8.85939 4.72371 6.84235 6.34363 5.36573C7.96356 3.88912 10.0667 3.05443 12.2583 3.01831C14.4499 2.9822 16.5794 3.74714 18.2471 5.16959C19.9148 6.59203 21.0061 8.57419 21.3161 10.7441C21.6261 12.914 21.1336 15.1224 19.931 16.955C18.7284 18.7875 16.8984 20.1182 14.7843 20.6973C12.6703 21.2764 10.4176 21.0641 8.44893 20.1002L3.39893 21.0002" stroke="black" stroke-width="2" stroke-linecap="round" stroke-linejoin="round"/>
<path d="M9.39893 10.0002C9.39893 10.1329 9.4516 10.26 9.54537 10.3538C9.63914 10.4476 9.76632 10.5002 9.89893 10.5002C10.0315 10.5002 10.1587 10.4476 10.2525 10.3538C10.3462 10.26 10.3989 10.1329 10.3989 10.0002V9.00024C10.3989 8.86764 10.3462 8.74046 10.2525 8.64669C10.1587 8.55292 10.0315 8.50024 9.89893 8.50024C9.76632 8.50024 9.63914 8.55292 9.54537 8.64669C9.4516 8.74046 9.39893 8.86764 9.39893 9.00024V10.0002ZM9.39893 10.0002C9.39893 11.3263 9.92571 12.5981 10.8634 13.5358C11.8011 14.4735 13.0728 15.0002 14.3989 15.0002H15.3989C15.5315 15.0002 15.6587 14.9476 15.7525 14.8538C15.8462 14.76 15.8989 14.6329 15.8989 14.5002C15.8989 14.3676 15.8462 14.2405 15.7525 14.1467C15.6587 14.0529 15.5315 14.0002 15.3989 14.0002H14.3989C14.2663 14.0002 14.1391 14.0529 14.0454 14.1467C13.9516 14.2405 13.8989 14.3676 13.8989 14.5002C13.8989 14.6329 13.9516 14.76 14.0454 14.8538C14.1391 14.9476 14.2663 15.0002 14.3989 15.0002" stroke="black" stroke-width="2" stroke-linecap="round" stroke-linejoin="round"/>
</svg>
