<svg width="25" height="25" viewBox="0 0 25 25" fill="none" xmlns="http://www.w3.org/2000/svg">
<g clip-path="url(#clip0_84_2150)">
<path d="M23.2789 6.92024C23.1563 6.44565 22.9065 6.01082 22.5549 5.65965C22.2033 5.30848 21.7622 5.05343 21.2763 4.92024C19.5008 4.50024 12.3989 4.50024 12.3989 4.50024C12.3989 4.50024 5.29695 4.50024 3.52147 4.96024C3.03553 5.09343 2.59448 5.34848 2.24286 5.69965C1.89124 6.05082 1.64151 6.48565 1.51889 6.96024C1.19395 8.7058 1.035 10.4766 1.04405 12.2502C1.03246 14.0373 1.19142 15.8215 1.51889 17.5802C1.65407 18.0401 1.9094 18.4584 2.2602 18.7947C2.611 19.1311 3.04541 19.3741 3.52147 19.5002C5.29695 19.9602 12.3989 19.9602 12.3989 19.9602C12.3989 19.9602 19.5008 19.9602 21.2763 19.5002C21.7622 19.3671 22.2033 19.112 22.5549 18.7608C22.9065 18.4097 23.1563 17.9748 23.2789 17.5002C23.6013 15.7678 23.7603 14.0106 23.7537 12.2502C23.7653 10.4632 23.6064 8.67894 23.2789 6.92024V6.92024Z" stroke="black" stroke-width="2" stroke-linecap="round" stroke-linejoin="round"/>
<path d="M10.0762 15.5202L16.0117 12.2502L10.0762 8.98022V15.5202Z" stroke="black" stroke-width="2" stroke-linecap="round" stroke-linejoin="round"/>
</g>
<defs>
<clipPath id="clip0_84_2150">
<rect width="24.7742" height="24" fill="white" transform="translate(0.0117188 0.500244)"/>
</clipPath>
</defs>
</svg>
