<svg width="33" height="32" viewBox="0 0 33 32" fill="none" xmlns="http://www.w3.org/2000/svg">
<g clip-path="url(#clip0_86_3329)">
<path d="M30.6812 8.91972C30.5228 8.3067 30.2003 7.74504 29.7461 7.29145C29.2919 6.83786 28.7222 6.50841 28.0945 6.33638C25.8012 5.79388 16.6279 5.79388 16.6279 5.79388C16.6279 5.79388 7.45455 5.79388 5.16121 6.38805C4.53354 6.56008 3.96385 6.88953 3.50967 7.34312C3.0555 7.79671 2.73293 8.35837 2.57454 8.97138C2.15483 11.2261 1.94953 13.5133 1.96121 15.8043C1.94625 18.1126 2.15157 20.4172 2.57454 22.6889C2.74916 23.2828 3.07895 23.8232 3.53207 24.2576C3.98519 24.692 4.54631 25.0059 5.16121 25.1689C7.45455 25.763 16.6279 25.763 16.6279 25.763C16.6279 25.763 25.8012 25.763 28.0945 25.1689C28.7222 24.9968 29.2919 24.6674 29.7461 24.2138C30.2003 23.7602 30.5228 23.1986 30.6812 22.5855C31.0977 20.3478 31.303 18.0781 31.2945 15.8043C31.3095 13.496 31.1042 11.1914 30.6812 8.91972V8.91972Z" stroke="#2C3E50" stroke-width="2.75" stroke-linecap="round" stroke-linejoin="round"/>
<path d="M13.6279 20.028L21.2946 15.8043L13.6279 11.5805V20.028Z" stroke="#2C3E50" stroke-width="2.75" stroke-linecap="round" stroke-linejoin="round"/>
</g>
<defs>
<clipPath id="clip0_86_3329">
<rect width="32" height="31" fill="white" transform="translate(0.62793 0.627197)"/>
</clipPath>
</defs>
</svg>
