<svg width="42" height="42" viewBox="0 0 42 42" fill="none" xmlns="http://www.w3.org/2000/svg">
<g clip-path="url(#clip0_51_20)">
<path d="M38.7951 11.9265C38.5921 11.1158 38.1788 10.3729 37.5969 9.77301C37.015 9.1731 36.2851 8.73738 35.4809 8.50986C32.5426 7.79236 20.7892 7.79236 20.7892 7.79236C20.7892 7.79236 9.03589 7.79236 6.09756 8.57819C5.29336 8.80572 4.56344 9.24144 3.98153 9.84134C3.39962 10.4413 2.98632 11.1841 2.78339 11.9949C2.24563 14.9768 1.98259 18.0019 1.99756 21.0319C1.97839 24.0848 2.24145 27.1329 2.78339 30.1374C3.00711 30.9229 3.42967 31.6375 4.01022 32.2121C4.59078 32.7867 5.30971 33.2018 6.09756 33.4174C9.03589 34.2032 20.7892 34.2032 20.7892 34.2032C20.7892 34.2032 32.5426 34.2032 35.4809 33.4174C36.2851 33.1898 37.015 32.7541 37.5969 32.1542C38.1788 31.5543 38.5921 30.8114 38.7951 30.0007C39.3287 27.0412 39.5917 24.0392 39.5809 21.0319C39.6001 17.9791 39.337 14.931 38.7951 11.9265V11.9265Z" stroke="black" stroke-width="2" stroke-linecap="round" stroke-linejoin="round"/>
<path d="M16.9453 26.6182L26.7682 21.0319L16.9453 15.4457V26.6182Z" stroke="black" stroke-width="2" stroke-linecap="round" stroke-linejoin="round"/>
</g>
<defs>
<clipPath id="clip0_51_20">
<rect width="41" height="41" fill="white" transform="translate(0.289062 0.958984)"/>
</clipPath>
</defs>
</svg>
